<?xml version="1.0" standalone="no"?>
<!DOCTYPE svg PUBLIC "-//W3C//DTD SVG 20010904//EN"
 "http://www.w3.org/TR/2001/REC-SVG-20010904/DTD/svg10.dtd">
<svg version="1.0" xmlns="http://www.w3.org/2000/svg"
 width="500.000000pt" height="200.000000pt" viewBox="0 0 1000.000000 1000.000000"
 preserveAspectRatio="xMidYMid meet">

<g transform="translate(0.000000,1000.000000) scale(0.100000,-0.100000)"
fill="#000000" stroke="none">
<path d="M965 5657 c-94 -37 -115 -76 -115 -217 0 -93 1 -100 20 -100 18 0 20
7 20 78 0 99 13 145 51 176 28 24 39 26 122 26 98 0 124 8 114 34 -5 13 -22
16 -94 15 -48 0 -101 -6 -118 -12z"/>
<path d="M1862 5658 c-25 -25 7 -38 100 -38 149 0 178 -29 178 -180 0 -74 3
-92 16 -97 25 -9 34 16 33 97 0 169 -61 229 -229 230 -53 0 -91 -5 -98 -12z"/>
<path d="M1303 5367 l-213 -112 0 -251 c0 -189 3 -254 13 -262 6 -5 103 -58
213 -116 l202 -107 213 114 214 113 0 254 0 255 -210 112 c-115 61 -212 112
-215 112 -3 0 -101 -50 -217 -112z m395 -32 c95 -49 172 -92 172 -95 0 -3 -79
-47 -176 -98 l-176 -92 -174 92 c-96 50 -174 94 -174 98 0 7 343 190 351 187
3 -1 83 -42 177 -92z m-381 -230 l173 -90 0 -212 c0 -117 -2 -213 -5 -213 -8
0 -327 170 -342 182 -10 8 -13 64 -13 220 0 115 3 208 8 206 4 -1 85 -43 179
-93z m583 -119 l0 -213 -174 -92 c-95 -50 -176 -91 -180 -91 -3 0 -5 95 -4
211 l3 211 175 94 c96 51 176 94 178 94 1 0 2 -96 2 -214z"/>
<path d="M3540 5065 l0 -235 45 0 45 0 0 235 0 235 -45 0 -45 0 0 -235z"/>
<path d="M8530 5067 l0 -233 176 1 c222 0 214 -6 214 160 0 162 2 160 -174
160 l-136 0 0 73 0 72 -40 0 -40 0 0 -233z m298 21 c18 -18 16 -172 -2 -187
-9 -8 -48 -11 -112 -9 l-99 3 -3 94 c-2 69 1 97 10 103 21 13 192 10 206 -4z"/>
<path d="M2404 5229 c3 -17 6 -114 6 -215 l0 -184 45 0 44 0 3 137 3 138 63
-113 63 -112 47 0 47 0 60 110 c33 60 63 110 68 110 4 0 7 -61 7 -135 l0 -135
45 0 45 0 0 215 0 215 -49 0 -49 0 -84 -145 c-45 -80 -86 -145 -89 -145 -4 0
-44 65 -89 145 l-82 145 -55 0 -55 0 6 -31z"/>
<path d="M5670 5044 l0 -215 208 3 c221 3 239 7 261 55 6 13 11 85 11 161 0
209 -4 212 -290 212 l-190 0 0 -216z m374 130 c13 -12 16 -39 16 -129 0 -90
-3 -117 -16 -129 -12 -13 -41 -16 -145 -16 l-129 0 0 145 0 145 129 0 c104 0
133 -3 145 -16z"/>
<path d="M6764 5213 c-8 -42 -12 -48 -37 -51 -23 -3 -27 -8 -27 -33 0 -26 3
-29 30 -29 l30 0 0 -109 c0 -134 10 -151 88 -159 28 -2 72 -1 97 2 40 6 46 10
43 29 -3 19 -10 22 -63 25 -32 2 -65 8 -72 14 -9 7 -13 40 -13 104 l0 94 80 0
80 0 0 30 0 30 -80 0 -80 0 0 50 0 50 -34 0 c-33 0 -34 -2 -42 -47z"/>
<path d="M7560 5045 l0 -215 208 0 c115 0 211 3 215 6 3 4 0 19 -9 35 l-15 29
-149 0 -150 0 0 180 0 180 -50 0 -50 0 0 -215z"/>
<path d="M4945 5161 c-11 -5 -44 -7 -72 -4 l-53 6 0 -167 0 -166 45 0 45 0 0
130 c0 118 2 130 19 140 27 14 69 13 127 -5 45 -13 50 -13 62 2 17 24 15 41
-8 53 -27 15 -140 22 -165 11z"/>
<path d="M3076 5152 c-3 -5 -2 -20 2 -33 7 -24 8 -24 142 -24 l135 0 3 -40 3
-40 -116 3 c-78 3 -127 0 -147 -9 -57 -23 -72 -114 -26 -156 20 -18 103 -23
248 -16 25 2 64 0 88 -3 l42 -6 0 124 c0 140 -9 180 -46 197 -29 13 -320 16
-328 3z m284 -222 l0 -40 -103 0 c-67 0 -107 4 -115 12 -13 13 -16 50 -5 61 3
4 55 7 115 7 l108 0 0 -40z"/>
<path d="M3690 5153 c0 -5 26 -79 57 -165 l57 -158 58 0 c45 0 58 3 62 18 27
94 68 222 71 222 2 0 16 -39 30 -87 51 -171 39 -153 103 -153 l57 0 58 158
c32 86 57 160 57 165 0 4 -22 7 -48 7 l-48 0 -39 -125 c-36 -119 -55 -153 -55
-101 0 12 -4 36 -9 52 -6 16 -19 62 -31 102 l-21 73 -57 -3 -57 -3 -30 -122
c-16 -68 -33 -123 -36 -123 -3 0 -23 56 -45 125 l-39 125 -47 0 c-27 0 -48 -3
-48 -7z"/>
<path d="M4365 5150 c-4 -6 -4 -21 -1 -33 5 -21 9 -22 131 -19 140 4 158 -2
153 -50 l-3 -29 -133 -2 c-133 -2 -134 -2 -158 -30 -32 -37 -32 -87 0 -124 23
-27 28 -28 113 -28 48 0 111 1 138 3 28 1 67 -1 88 -4 l37 -6 0 144 c0 192 10
182 -200 186 -109 2 -160 0 -165 -8z m283 -217 l-3 -38 -90 -3 c-118 -4 -135
1 -135 37 0 15 3 31 7 34 3 4 55 7 115 7 l109 0 -3 -37z"/>
<path d="M5215 5137 c-27 -22 -29 -30 -33 -113 -5 -115 8 -167 48 -184 31 -13
322 -11 335 2 4 3 2 16 -5 27 -10 20 -19 21 -135 21 -68 0 -130 3 -139 6 -10
4 -16 18 -16 35 l0 29 145 0 145 0 0 78 c0 113 -4 116 -179 120 -134 4 -138 3
-166 -21z m249 -43 c10 -4 16 -18 16 -40 l0 -34 -105 0 -105 0 0 34 c0 19 6
37 13 39 18 8 162 8 181 1z"/>
<path d="M6266 5152 c-3 -5 -2 -20 2 -33 7 -24 8 -24 142 -24 l135 0 3 -40 3
-40 -116 3 c-78 3 -127 0 -147 -9 -57 -23 -72 -114 -26 -156 20 -18 103 -23
248 -16 25 2 64 0 88 -3 l42 -6 0 124 c0 140 -9 180 -46 197 -29 13 -320 16
-328 3z m284 -222 l0 -40 -103 0 c-67 0 -107 4 -115 12 -13 13 -16 50 -5 61 3
4 55 7 115 7 l108 0 0 -40z"/>
<path d="M7087 5154 c-4 -4 -7 -18 -7 -31 0 -23 0 -23 134 -23 145 0 160 -5
154 -55 l-3 -26 -133 -2 c-133 -2 -134 -2 -158 -30 -26 -31 -31 -71 -13 -111
18 -39 66 -50 183 -41 112 8 115 8 169 -1 l37 -6 0 140 c0 195 9 186 -197 190
-87 2 -162 0 -166 -4z m281 -221 l-3 -38 -107 -3 c-99 -2 -108 -1 -118 18 -8
14 -8 26 0 40 10 18 21 20 121 20 l110 0 -3 -37z"/>
<path d="M8077 5153 c-4 -3 -7 -18 -7 -32 l0 -26 137 0 138 0 3 -40 3 -40
-111 3 c-61 2 -122 1 -136 -2 -41 -11 -64 -42 -64 -87 0 -87 35 -105 188 -95
59 4 112 7 117 7 6 -1 29 -4 53 -7 l42 -6 0 128 c0 71 -3 139 -6 152 -12 42
-51 52 -207 52 -79 0 -147 -3 -150 -7z m273 -223 l0 -40 -104 0 c-114 0 -134
9 -122 55 6 25 7 25 116 25 l110 0 0 -40z"/>
<path d="M850 4560 c0 -119 17 -164 77 -201 32 -20 55 -24 140 -27 89 -4 104
-2 109 12 4 9 3 20 -1 24 -3 4 -53 9 -110 12 -84 4 -107 9 -125 25 -37 32 -50
78 -50 170 0 78 -2 85 -20 85 -19 0 -20 -7 -20 -100z"/>
<path d="M2147 4653 c-4 -3 -7 -44 -7 -91 0 -147 -32 -182 -170 -182 -91 0
-129 -12 -109 -36 8 -10 34 -14 93 -14 119 1 178 27 213 94 17 32 29 170 19
210 -6 25 -25 34 -39 19z"/>
</g>
</svg>
